<?xml version="1.0" encoding="UTF-8" standalone="no"?>
<!DOCTYPE svg PUBLIC "-//W3C//DTD SVG 1.1//EN"
"http://www.w3.org/Graphics/SVG/1.1/DTD/svg11.dtd">
<svg viewBox="0 0 1286 909" version="1.1" xmlns="http://www.w3.org/2000/svg" xmlns:xlink="http://www.w3.org/1999/xlink">
<defs>
<style type="text/css"><![CDATA[
.g0_2{
fill: #3365FF;
}
.g1_2{
}
]]></style>
</defs>
<path d="M32.8,27.8v.3h.4v-.3h-.4Z" class="g0_2"/>
<path d="M32.8,27.8v.3H1242.2v-.3H32.8Z" class="g0_2"/>
<path d="M1241.8,27.8v.3h.4v-.3h-.4Z" class="g0_2"/>
<path d="M32.8,28.1V54.6h.4V28.1h-.4Z" class="g0_2"/>
<path d="M1241.8,28.1V54.6h.4V28.1h-.4Z" class="g0_2"/>
<path d="M32.8,54.6V55H1242.7v-.4H32.8Z" class="g0_2"/>
<path d="M32.8,55V81.1h.4V55h-.4Z" class="g0_2"/>
<path d="M109.8,55V81.1h.4V55h-.4Z" class="g0_2"/>
<path d="M646.1,55V81.1h.3V55h-.3Z" class="g0_2"/>
<path d="M907.3,55V81.1h.4V55h-.4Z" class="g0_2"/>
<path d="M962.3,55V81.1h.4V55h-.4Z" class="g0_2"/>
<path d="M1241.2,55V81.1h1.5V55h-1.5Z" class="g1_2"/>
<path d="M32.8,81.1v.4H1242.7v-.4H32.8Z" class="g0_2"/>
<path d="M32.8,81.5V186.9h.4V81.5h-.4Z" class="g0_2"/>
<path d="M109.8,81.5V186.9h.4V81.5h-.4Z" class="g0_2"/>
<path d="M646.1,81.5V186.9h.3V81.5h-.3Z" class="g0_2"/>
<path d="M907.3,81.5V186.9h.4V81.5h-.4Z" class="g0_2"/>
<path d="M962.3,81.5V186.9h.4V81.5h-.4Z" class="g0_2"/>
<path d="M1241.8,81.5V186.9h.4V81.5h-.4Z" class="g0_2"/>
<path d="M32.8,186.9v.4H907.7v-.4H32.8Z" class="g0_2"/>
<path d="M962.3,186.9v.4h279.9v-.4H962.3Z" class="g0_2"/>
<path d="M32.8,187.3v26.5h.4V187.3h-.4Z" class="g0_2"/>
<path d="M32.8,213.4v.4H68.7v-.4H32.8Z" class="g0_2"/>
<path d="M68.7,187.3v26.5h.4V187.3h-.4Z" class="g0_2"/>
<path d="M69.1,213.4v.4h577v-.4H69.1Z" class="g0_2"/>
<path d="M646.1,187.3v26.5h.3V187.3h-.3Z" class="g0_2"/>
<path d="M646.4,213.4v.4H907.3v-.4H646.4Z" class="g0_2"/>
<path d="M907.3,187.3v26.5h.4V187.3h-.4Z" class="g0_2"/>
<path d="M907.7,213.4v.4h54.6v-.4H907.7Z" class="g0_2"/>
<path d="M962.3,187.3v26.5h.4V187.3h-.4Z" class="g0_2"/>
<path d="M962.7,213.4v.4h279.1v-.4H962.7Z" class="g0_2"/>
<path d="M1241.8,187.3v26.5h.4V187.3h-.4Z" class="g0_2"/>
<path d="M1241.8,213.4v.4h.4v-.4h-.4Z" class="g0_2"/>
<path d="M32.8,227.8v.4h.4v-.4h-.4Z" class="g0_2"/>
<path d="M32.8,227.8v.4H1242.2v-.4H32.8Z" class="g0_2"/>
<path d="M1241.8,227.8v.4h.4v-.4h-.4Z" class="g0_2"/>
<path d="M32.8,228.2v26.4h.4V228.2h-.4Z" class="g0_2"/>
<path d="M1241.8,228.2v26.4h.4V228.2h-.4Z" class="g0_2"/>
<path d="M32.8,254.6v.3H1242.2v-.3H32.8Z" class="g0_2"/>
<path d="M32.8,254.9v26.2h.4V254.9h-.4Z" class="g0_2"/>
<path d="M109.8,254.9v26.2h.4V254.9h-.4Z" class="g0_2"/>
<path d="M646.1,254.9v26.2h.3V254.9h-.3Z" class="g0_2"/>
<path d="M907.3,254.9v26.2h.4V254.9h-.4Z" class="g0_2"/>
<path d="M962.3,254.9v26.2h.4V254.9h-.4Z" class="g0_2"/>
<path d="M1241.8,254.9v26.2h.4V254.9h-.4Z" class="g0_2"/>
<path d="M32.8,281.1v.4H1242.2v-.4H32.8Z" class="g0_2"/>
<path d="M32.8,281.5V386.9h.4V281.5h-.4Z" class="g0_2"/>
<path d="M109.8,281.5V386.9h.4V281.5h-.4Z" class="g0_2"/>
<path d="M646.1,281.5V386.9h.3V281.5h-.3Z" class="g0_2"/>
<path d="M907.3,281.5V386.9h.4V281.5h-.4Z" class="g0_2"/>
<path d="M962.3,281.5V386.9h.4V281.5h-.4Z" class="g0_2"/>
<path d="M1241.8,281.5V386.9h.4V281.5h-.4Z" class="g0_2"/>
<path d="M32.8,386.9v.4H907.7v-.4H32.8Z" class="g0_2"/>
<path d="M962.3,386.9v.4h279.9v-.4H962.3Z" class="g0_2"/>
<path d="M32.8,387.3v26.4h.4V387.3h-.4Z" class="g0_2"/>
<path d="M32.8,413.3v.4H68.7v-.4H32.8Z" class="g0_2"/>
<path d="M68.7,387.3v26.4h.4V387.3h-.4Z" class="g0_2"/>
<path d="M69.1,413.3v.4h577v-.4H69.1Z" class="g0_2"/>
<path d="M646.1,387.3v26.4h.3V387.3h-.3Z" class="g0_2"/>
<path d="M646.4,413.3v.4H907.3v-.4H646.4Z" class="g0_2"/>
<path d="M907.3,387.3v26.4h.4V387.3h-.4Z" class="g0_2"/>
<path d="M907.7,413.3v.4h54.6v-.4H907.7Z" class="g0_2"/>
<path d="M962.3,387.3v26.4h.4V387.3h-.4Z" class="g0_2"/>
<path d="M962.7,413.3v.4h279.1v-.4H962.7Z" class="g0_2"/>
<path d="M1241.8,387.3v26.4h.4V387.3h-.4Z" class="g0_2"/>
<path d="M1241.8,413.3v.4h.4v-.4h-.4Z" class="g0_2"/>
<path d="M32.8,427.7v.4h.4v-.4h-.4Z" class="g0_2"/>
<path d="M32.8,427.7v.4H1241.2v-.4H32.8Z" class="g0_2"/>
<path d="M1240.8,427.7v.4h.4v-.4h-.4Z" class="g0_2"/>
<path d="M32.8,428.1v45.3h.4V428.1h-.4Z" class="g0_2"/>
<path d="M522.5,428.1v45.3h.4V428.1h-.4Z" class="g0_2"/>
<path d="M728.7,428.1v45.3h.4V428.1h-.4Z" class="g0_2"/>
<path d="M1005.4,428.1v45.3h.4V428.1h-.4Z" class="g0_2"/>
<path d="M1240.8,428.1v45.3h.4V428.1h-.4Z" class="g0_2"/>
<path d="M32.8,473.4v.3H1241.2v-.3H32.8Z" class="g0_2"/>
<path d="M32.8,473.7V800.5h.4V473.7h-.4Z" class="g0_2"/>
<path d="M357.5,473.7V800.5h.4V473.7h-.4Z" class="g0_2"/>
<path d="M522.5,473.7V800.5h.4V473.7h-.4Z" class="g0_2"/>
<path d="M728.7,473.7V800.5h.4V473.7h-.4Z" class="g0_2"/>
<path d="M1005.4,473.7V800.5h.4V473.7h-.4Z" class="g0_2"/>
<path d="M1240.8,473.7V800.5h.4V473.7h-.4Z" class="g0_2"/>
<path d="M32.8,800.5v.8h.4v-.8h-.4Z" class="g0_2"/>
<path d="M357.5,800.5v.8h.4v-.8h-.4Z" class="g0_2"/>
<path d="M357.9,800.5v.4H522.5v-.4H357.9Z" class="g0_2"/>
<path d="M522.5,800.5v.8h.4v-.8h-.4Z" class="g0_2"/>
<path d="M728.7,800.5v.8h.4v-.8h-.4Z" class="g0_2"/>
<path d="M1005.4,800.5v.8h.4v-.8h-.4Z" class="g0_2"/>
<path d="M1240.8,800.5v.8h.4v-.8h-.4Z" class="g0_2"/>
<path d="M32.8,801.3v44.4h.4V801.3h-.4Z" class="g0_2"/>
<path d="M32.8,845.4v.3H357.5v-.3H32.8Z" class="g0_2"/>
<path d="M357.5,801.3v44.4h.4V801.3h-.4Z" class="g0_2"/>
<path d="M357.9,845.4v.3H522.5v-.3H357.9Z" class="g0_2"/>
<path d="M522.5,801.3v44.4h.4V801.3h-.4Z" class="g0_2"/>
<path d="M522.9,845.4v.3H728.7v-.3H522.9Z" class="g0_2"/>
<path d="M728.7,801.3v44.4h.4V801.3h-.4Z" class="g0_2"/>
<path d="M729.1,845.4v.3h276.3v-.3H729.1Z" class="g0_2"/>
<path d="M1005.4,801.3v44.4h.4V801.3h-.4Z" class="g0_2"/>
<path d="M1005.8,845.4v.3h235v-.3h-235Z" class="g0_2"/>
<path d="M1240.8,801.3v44.4h.4V801.3h-.4Z" class="g0_2"/>
<path d="M1240.8,845.4v.3h.4v-.3h-.4Z" class="g0_2"/>
</svg>